<?xml version="1.0" encoding="iso-8859-1"?>
<!-- Uploaded to: SVG Repo, www.svgrepo.com, Generator: SVG Repo Mixer Tools -->
<svg fill="#000000" version="1.1" id="Layer_1" xmlns="http://www.w3.org/2000/svg"
     viewBox="0 0 462.929 462.929" xml:space="preserve">
<g transform="translate(0 -540.36)">
	<g>
		<g>
			<path d="M462.535,716.892c-1.3-4-5.6-6-9.5-4.7l-44.6,15.3c-4.5,1.3-8.8,2.5-12.7,2.5h-328.5c-5.1,0-9.2-1.2-13.9-2.5l-43.3-15.3
				c-3.9-1.4-8.2,0.7-9.6,4.6c-1.4,3.9,0.7,8.2,4.6,9.6l43.6,15.4c0.2,0.1,0.3,0.2,0.5,0.2c5.1,1.5,10.9,3.1,18.2,3.1h328.5v0
				c6,0,11.5-1.6,16.8-3.2c0.1,0,0.3-0.1,0.4-0.1l44.8-15.4C461.835,725.092,463.835,720.792,462.535,716.892z"/>
            <path d="M126.935,760.892c-19.6,0-35.5,15.9-35.5,35.5s15.9,35.5,35.5,35.5c19.6,0,35.5-15.9,35.5-35.5
				S146.535,760.892,126.935,760.892z M126.935,816.892c-11.3,0-20.5-9.2-20.5-20.5s9.2-20.5,20.5-20.5s20.5,9.2,20.5,20.5
				S138.235,816.892,126.935,816.892z"/>
            <path d="M336.135,760.892c-19.6,0-35.5,15.9-35.5,35.5s15.9,35.5,35.5,35.5c19.6,0,35.5-15.9,35.5-35.5
				S355.735,760.892,336.135,760.892z M336.135,816.892c-11.3,0-20.5-9.2-20.5-20.5s9.2-20.5,20.5-20.5c11.3,0,20.5,9.2,20.5,20.5
				S347.435,816.892,336.135,816.892z"/>
		</g>
	</g>
</g>
</svg>