<svg fill="var(--ifm-font-color-base)" version="1.1" id="Layer_1"
    xmlns="http://www.w3.org/2000/svg"
    xmlns:xlink="http://www.w3.org/1999/xlink" viewBox="-20.48 -20.48 552.96 552.96" xml:space="preserve" stroke="var(--ifm-font-color-base)" stroke-width="20.48">
    <g id="SVGRepo_bgCarrier" stroke-width="0"></g>
    <g id="SVGRepo_tracerCarrier" stroke-linecap="round" stroke-linejoin="round"></g>
    <g id="SVGRepo_iconCarrier">
        <g>
            <g>
                <path d="M19.21,16.378l-1.062,0.72c0.379,0.004,0.72,0.038,1.096,0.043C19.239,16.875,19.215,16.642,19.21,16.378z"></path>
            </g>
        </g>
        <g>
            <g>
                <path d="M15.53,16.378l-1.062,0.72c0.372,0.004,0.713,0.038,1.092,0.043C15.553,16.877,15.53,16.642,15.53,16.378z"></path>
            </g>
        </g>
        <g>
            <g>
                <path d="M162.679,36.647c-5.562-2.363-10.832-4.476-16.111-6.458c-5.046-1.895-10.673,0.661-12.568,5.708 c-1.895,5.047,0.661,10.671,5.708,12.566c5.016,1.883,10.032,3.894,15.336,6.148c1.247,0.53,2.54,0.781,3.814,0.781 c3.797,0,7.408-2.231,8.986-5.945C169.952,44.486,167.64,38.754,162.679,36.647z"></path>
            </g>
        </g>
        <g>
            <g>
                <path d="M373.319,355.061c15.022-2.004,27.996-5.09,42.06-11.058c9.432-4,34.487-14.626,56.339-38.222 c35.591-38.433,40.398-86.099,40.096-111.093c-0.03-2.617-1.111-5.111-3-6.922c-1.887-1.812-4.4-2.769-7.041-2.716 c-14.22,0.409-28.394,2.434-42.128,6.019c-9.625,2.512-19.043,5.789-28.157,9.792c2.777-25.319,2.879-33.3,2.883-33.689 c0.202-23.916-4.728-42.223-7.673-53.159C412.58,61.526,377.08,21.748,357.176,2.707c-3.657-3.497-9.378-3.62-13.183-0.285 c-17.28,15.156-32.4,32.557-44.937,51.721c-12.315,18.833-22.012,39.123-28.934,60.512c-11.831-12.898-30.021-31.4-49.125-45.84 c-4.302-3.25-10.423-2.4-13.672,1.901c-3.25,4.301-2.4,10.422,1.901,13.672c26.114,19.74,50.713,47.878,57.63,56.033 c0.433,0.511,0.69,0.786,0.733,0.83c2.466,2.561,6.131,3.578,9.561,2.656c3.434-0.921,6.094-3.636,6.946-7.087 c6.348-25.721,16.879-49.943,31.3-71.992c9.915-15.156,21.582-29.119,34.758-41.608c18.86,19.331,46.21,53.158,57.699,95.865 c2.859,10.621,7.182,26.671,7.002,47.894c-0.001,0.109-0.206,11.446-4.819,49.477c-0.444,3.652,1.205,7.241,4.261,9.288 c3.056,2.047,7.003,2.198,10.211,0.397c12.624-7.094,26.107-12.54,40.073-16.184c9.006-2.352,18.223-3.952,27.516-4.788 c-1.2,23.318-7.998,58.519-34.695,87.349c-19.006,20.523-41.261,29.961-49.641,33.515c-15.315,6.499-28.71,9.086-49.232,11.023 c0.086-1.219,0.172-2.451,0.26-3.704c1.113-15.861,1.283-45.484,1.23-67.541c-0.033-13.751-0.155-25.557-0.225-31.369 c-0.048-4.077-0.098-7.398-0.137-9.702c-0.02-1.054-0.035-2.046-0.09-2.985c0-0.096,0-0.141,0-0.157 c0,0.043-0.001,0.085-0.003,0.129c-0.213-3.606-0.988-6.391-4.516-8.633c-3.023-1.922-6.86-2.033-9.988-0.288 c-5.065,2.823-5.03,7.492-5.009,10.282c0.008,1.153,0.027,2.915,0.057,5.359c0.005,0.432,0.038,0.858,0.098,1.274 c0.258,18.611,0.67,65.538-0.392,92.669l-30.51-29.747c-3.86-3.764-10.04-3.686-13.801,0.176 c-3.764,3.859-3.684,10.039,0.176,13.801l33.524,32.687c-25.191,1.471-79.324,1.005-99.652,0.724 c-0.417-0.06-0.841-0.092-1.273-0.098c-2.444-0.03-4.206-0.049-5.359-0.057c-2.812-0.014-7.46-0.053-10.282,5.009 c-1.745,3.129-1.635,6.964,0.288,9.988c2.242,3.528,5.029,4.302,8.633,4.516c-0.113,0.003-0.131,0.003,0.031,0.003 c0.938,0.055,1.93,0.072,2.983,0.09c2.305,0.039,5.625,0.089,9.702,0.137c5.813,0.07,17.617,0.191,31.369,0.225 c2.259,0.005,4.594,0.009,6.99,0.009c20.989,0,46.315-0.239,60.551-1.238c1.383-0.096,2.739-0.193,4.082-0.286 c-1.939,20.731-4.52,34.198-11.055,49.603c-3.555,8.38-13,30.641-33.516,49.638c-28.83,26.699-64.029,33.497-87.347,34.698 c0.836-9.3,2.438-18.518,4.787-27.515c3.649-13.974,9.093-27.458,16.184-40.073c1.802-3.207,1.649-7.154-0.397-10.211 c-2.046-3.058-5.642-4.705-9.288-4.261c-38.032,4.613-49.366,4.819-49.447,4.82c-21.283,0.19-37.297-4.144-47.925-7.003 c-42.7-11.487-76.529-38.838-95.862-57.699c12.49-13.174,26.451-24.841,41.61-34.758c22.047-14.419,46.27-24.95,71.991-31.299 c3.447-0.85,6.161-3.506,7.085-6.935c0.925-3.43-0.086-7.09-2.639-9.559c-0.044-0.042-0.327-0.306-0.851-0.752 c-8.157-6.921-36.302-31.532-56.023-57.623c-15.44-20.435-23.059-38.363-29.783-54.179 c-16.728-39.367-25.976-82.671-27.54-128.855c20.435,0.729,40.515,3.071,59.827,6.986c5.282,1.066,10.436-2.344,11.506-7.626 c1.071-5.284-2.344-10.435-7.626-11.506C67.262,9.417,42.504,6.858,17.362,6.616c-2.599,0.027-5.142,1.003-6.995,2.858 c-1.854,1.854-2.884,4.374-2.859,6.996c0.505,52.545,10.366,101.797,29.309,146.383c6.809,16.021,15.282,35.959,32.174,58.314 c14.431,19.095,32.94,37.292,45.839,49.126c-21.392,6.922-41.682,16.62-60.514,28.935c-19.168,12.539-36.569,27.657-51.721,44.936 c-3.336,3.804-3.213,9.526,0.286,13.183c19.042,19.905,58.825,55.406,111.302,69.523c10.945,2.946,29.32,7.873,53.162,7.673 c0.39-0.004,8.369-0.107,33.688-2.883c-4,9.108-7.279,18.525-9.792,28.154c-3.581,13.721-5.606,27.894-6.019,42.128 c-0.076,2.616,0.902,5.152,2.715,7.041c1.813,1.888,4.308,2.97,6.923,3.001c0.691,0.009,1.396,0.014,2.121,0.014 c25.498-0.001,71.603-5.504,108.971-40.112c23.588-21.839,34.22-46.901,38.223-56.335c6.985-16.463,10.021-31.435,11.996-49.948 l119.483,116.496c1.897,1.851,4.356,2.772,6.812,2.772c2.539,0,5.077-0.985,6.99-2.948c3.764-3.859,3.684-10.039-0.176-13.801 L373.319,355.061z"></path>
            </g>
        </g>
        <g>
            <g>
                <path d="M246.558,231.467l-26.832-26.162c-3.86-3.765-10.039-3.686-13.801,0.176c-3.764,3.86-3.684,10.039,0.176,13.801 l26.832,26.162c1.896,1.851,4.354,2.772,6.812,2.772c2.539,0,5.077-0.985,6.99-2.948 C250.497,241.408,250.418,235.229,246.558,231.467z"></path>
            </g>
        </g>
    </g>
</svg>